<svg width="100" height="100" viewBox="0 0 100 100" fill="none" xmlns="http://www.w3.org/2000/svg">
<path d="M10.6487 0.0449014C10.8783 0.0229488 11.2485 0.0190772 11.4845 0.0190772C15.2456 0.0177859 19.0079 0.0216585 22.7689 0.0216585H45.7092L54.9867 0.0190772C56.6763 0.0164946 59.1166 -0.0777746 60.7134 0.177908C62.7667 0.507195 65.1696 2.00642 66.6322 3.46433C68.5256 5.38324 69.68 7.91294 69.8876 10.6028C69.9805 11.7185 69.9225 13.6154 69.9225 14.7828L69.925 21.2007C68.75 21.2058 67.6873 21.1103 66.4852 21.1787C65.3888 21.2407 64.2758 21.4331 63.2078 21.4641L63.2491 14.7182C63.2658 12.439 63.5032 9.84089 61.7516 8.15442C60.3587 6.81274 59.0353 6.71847 57.2206 6.71072H25.2492H15.9253C15.4287 6.71072 14.9296 6.70297 14.433 6.70814C11.9747 6.73396 9.93549 6.37498 8.03949 8.28226C7.34043 8.9757 6.88255 9.87705 6.73681 10.852C6.6117 11.6617 6.67103 13.6903 6.67619 14.5865L6.71359 21.1581L6.72004 43.9577V63.2772L6.71617 68.467C6.70972 70.9799 6.49303 73.3315 8.40709 75.2723C10.0529 76.9407 12.2197 76.7328 14.3621 76.7302L18.7138 76.7238L35.0104 76.7263V83.223L18.7125 83.2217H14.0848C10.5649 83.2204 7.55453 83.1804 4.61252 80.8934C1.89234 78.7783 0.458092 76.1117 0.0917908 72.6871C-0.0513762 71.3454 0.0156935 69.8604 0.0156935 68.5058L0.0182736 61.5442V38.8737L0.0156935 19.3747V13.6258C0.0156935 12.5798 -0.0268687 11.0806 0.1034 10.0798C0.360069 8.09631 1.39577 5.93722 2.643 4.39021C4.62283 1.92765 7.50423 0.363861 10.6449 0.0474865L10.6487 0.0449014Z" fill="white"/>
<path d="M99.9953 81.348C99.7721 71.5701 91.6851 63.817 81.9162 64.0223C72.1241 64.2276 64.357 72.3513 64.5801 82.1551C64.8033 91.9588 72.9315 99.7197 82.7237 99.4782C92.49 99.238 100.218 91.1259 99.9953 81.3467V81.348ZM92.7853 77.2274C91.9624 78.3586 90.8532 79.2677 89.9362 80.3214C87.1902 83.3741 84.4597 86.4358 81.5938 89.3762C80.9463 90.0425 80.3324 90.7114 79.3199 90.6662C78.9587 90.6623 78.5641 90.4751 78.2816 90.2568C77.7038 89.8101 77.1659 89.2264 76.6513 88.7098L74.0872 86.1272L72.7458 84.792C72.0197 84.0598 71.1723 83.1688 71.2032 82.0673C71.2239 81.441 71.4908 80.8508 71.9474 80.4221C72.4788 79.9224 73.2708 79.6512 73.9943 79.6886C74.389 79.7041 74.7721 79.8268 75.1036 80.0425C75.8233 80.5099 76.6835 81.5856 77.3233 82.2287C78.0146 82.9247 78.773 83.6427 79.4231 84.3645L85.6682 77.7594L87.857 75.4789C88.5806 74.717 89.1855 73.8751 90.1903 73.5109C90.3205 73.4993 90.4495 73.4903 90.5785 73.4838C91.9792 73.4141 93.082 74.5711 93.1349 75.9632C93.1465 76.2937 92.9788 76.9575 92.784 77.2274H92.7853Z" fill="white"/>
<path d="M58.6832 55.054C59.3203 54.9714 60.5547 54.9921 61.2267 54.9946L65.0419 55.0011C66.7431 55.0011 68.4469 54.9856 70.1469 55.0114C75.0352 55.0876 79.1019 57.0866 82.9287 59.9443C82.7688 59.9262 82.6075 59.9159 82.4463 59.9081C81.0134 59.8474 79.5946 59.8952 78.181 60.1483C68.563 61.8735 60.9506 70.639 60.5005 80.3408C60.4334 81.3299 60.467 82.31 60.3973 83.3082H48.4203C46.3824 83.3082 44.2298 83.3612 42.2048 83.2307C41.5354 83.1571 41.0427 83.0525 40.4932 82.66C38.7301 81.3983 39.3543 79.1889 39.3376 77.3048C39.2924 72.1266 40.8518 67.3307 44.044 63.241C47.6593 58.6917 52.9178 55.7514 58.6819 55.0553L58.6832 55.054Z" fill="white"/>
<path d="M64.45 25.6894C71.7941 25.2981 78.0715 30.927 78.4881 38.2785C78.9047 45.63 73.3044 51.9343 65.9629 52.3772C58.5853 52.8227 52.2498 47.1809 51.8319 39.7932C51.4127 32.4056 57.0698 26.0832 64.45 25.6894Z" fill="white"/>
<path d="M31.604 17.0803C33.0937 17.026 34.8117 17.0635 36.3169 17.0622H44.885H51.4023C52.5141 17.0622 55.3272 16.8943 56.1862 17.3992C57.9158 18.4155 57.5946 20.9077 55.4149 21.3403L39.3105 21.3365H34.2752C33.451 21.3365 31.2545 21.4643 30.6418 21.0679C28.7871 19.8682 29.4269 17.5154 31.6027 17.0816L31.604 17.0803Z" fill="white"/>
<path d="M23.517 29.4704C24.6094 29.4045 25.4207 29.8539 25.8554 30.9128C26.0101 31.2989 26.0321 32.0931 25.7573 32.4379C23.8794 34.7971 21.4365 36.8736 19.5109 39.2031C18.2224 40.7605 16.8384 41.5753 15.2365 39.9263C14.798 39.4743 14.2537 38.9591 13.7829 38.4813C13.1703 37.855 12.5821 37.2493 11.9811 36.5791C10.8138 35.2801 11.8701 33.5846 13.4011 33.4903C14.4871 33.4231 16.0297 35.1484 16.8681 35.9309C18.0483 34.5931 19.3084 33.285 20.5646 32.0169C21.3592 31.2163 22.4813 29.8061 23.517 29.4717V29.4704Z" fill="white"/>
<path d="M23.7802 59.3141C25.2982 59.4277 26.6113 61.1013 25.6065 62.4159C23.775 64.8319 21.1993 66.8283 19.2594 69.1475C16.7972 72.0905 15.8118 70.4996 13.6127 68.3121C12.8298 67.5166 11.4536 66.4952 11.4368 65.3575C11.4162 64.0055 13.0671 62.9221 14.2615 63.6246C15.1669 64.1566 16.0853 65.076 16.7882 65.8482C18.2083 64.4148 19.5006 62.8549 20.922 61.4241C21.7578 60.5835 22.5523 59.4833 23.7802 59.3115V59.3141Z" fill="white"/>
<path d="M23.6564 14.1023C24.162 14.0752 24.6753 14.1165 25.0532 14.4574C27.193 16.3556 25.0081 18.1002 23.5944 19.4845C21.7101 21.3169 20.0501 23.3869 18.1141 25.1573C16.5638 26.5752 14.8561 24.3244 13.7714 23.2836C13.0375 22.545 11.3324 21.2213 11.4652 20.342C11.8676 17.6805 14.3905 17.8742 15.7577 19.7286C15.9086 19.9339 16.6683 20.6028 16.8243 20.75C18.1786 19.1811 19.5922 17.6638 21.0626 16.202C21.7913 15.4672 22.6645 14.3838 23.6564 14.1023Z" fill="white"/>
<path d="M32.0013 46.9846C35.5508 46.8373 39.2216 47.0297 42.7801 46.9393C43.7629 46.9148 45.5338 46.8503 46.3516 47.4133C46.8094 47.7271 47.119 48.2165 47.2054 48.7653C47.4182 50.1767 46.251 51.0897 44.9715 51.2808L36.148 51.2872C34.6493 51.2872 33.1583 51.3131 31.6544 51.2511C29.9518 51.2072 28.9239 49.1075 30.0834 47.7955C30.6457 47.1589 31.2068 47.0452 32.0026 46.9846H32.0013Z" fill="white"/>
<path d="M23.8072 44.3284C24.8932 44.4111 25.778 45.1898 25.916 46.2887C26.0076 46.9937 25.471 47.6859 24.9886 48.1753C22.6154 50.5888 20.219 53.001 17.838 55.4028C17.6613 55.581 16.9635 55.8122 16.7211 55.7877C15.5964 55.6779 14.442 54.1916 13.6617 53.3935C12.8568 52.6394 11.5361 51.6606 11.4651 50.4906C11.4019 49.4137 12.4415 48.4142 13.5017 48.4491C14.4175 48.48 15.1243 49.3181 15.7395 49.9082C16.08 50.2337 16.4167 50.5836 16.752 50.9194C18.1011 49.5247 19.3638 47.9958 20.7594 46.6347C21.6971 45.7205 22.4387 44.5428 23.8059 44.3271L23.8072 44.3284Z" fill="white"/>
<path d="M31.5421 32.0582C33.5348 31.9781 35.6527 32.0556 37.6596 32.0401C40.0844 32.022 42.6201 32.0155 45.0385 32.0633C47.4311 32.1098 48.3636 35.4027 45.4216 36.233C44.8373 36.3363 43.5565 36.304 42.8987 36.3053L38.6411 36.3079H33.9114C33.0228 36.3079 31.2803 36.4422 30.5748 36.0083C30.0833 35.7113 29.7325 35.2296 29.5971 34.6705C29.2914 33.3456 30.3078 32.3177 31.5421 32.0582Z" fill="white"/>
<path d="M31.1964 61.7519C32.2992 61.6874 33.5787 61.7519 34.7021 61.7313C35.5675 61.7416 36.4291 61.7093 37.2933 61.7597C40.0547 61.9224 40.4159 64.9557 37.9446 65.9526C37.3861 66.0688 35.5688 65.9952 34.9201 66.003C33.8753 65.9772 32.7958 66.065 31.7536 65.9939C29.2153 65.8183 28.6865 62.5371 31.1964 61.7519Z" fill="white"/>
</svg>
